<?xml version="1.0" encoding="UTF-8"?>
<svg width="97px" height="194px" viewBox="0 0 97 194" version="1.1" xmlns="http://www.w3.org/2000/svg" xmlns:xlink="http://www.w3.org/1999/xlink">
    <!-- Generator: Sketch 52.1 (67048) - http://www.bohemiancoding.com/sketch -->
    <title>EstarSanoApp</title>
    <desc>Created with Sketch.</desc>
    <g id="Page-1" stroke="none" stroke-width="1" fill="none" fill-rule="evenodd">
        <g id="00" transform="translate(-138.000000, -146.000000)">
            <g id="EstarSanoApp" transform="translate(101.000000, 144.000000)">
                <path d="M43.6673077,151.376282 C43.6673077,153.495523 44.1320466,155.242942 45.0615385,156.61859 C45.9910303,157.994238 47.2737098,158.682051 48.9096154,158.682051 C51.4750128,158.682051 53.1108939,157.417961 53.8173077,154.889744 L58.9480769,155.726282 C57.2749916,160.299382 53.9288712,162.585897 48.9096154,162.585897 C45.5634448,162.585897 42.8958433,161.516998 40.9067308,159.379167 C38.9176183,157.241335 37.9230769,154.462197 37.9230769,151.041667 C37.9230769,147.435238 38.8804391,144.544562 40.7951923,142.369551 C42.7099455,140.19454 45.3124835,139.107051 48.6028846,139.107051 C51.8932857,139.107051 54.4586446,140.138772 56.2990385,142.202244 C58.1394323,144.265715 59.0596154,147.082033 59.0596154,150.651282 L59.0596154,151.376282 L43.6673077,151.376282 Z M54.0403846,148.364744 C54.0403846,146.840377 53.5663509,145.501929 52.6182692,144.349359 C51.6701876,143.196789 50.4432768,142.620513 48.9375,142.620513 C47.4317232,142.620513 46.2048124,143.224673 45.2567308,144.433013 C44.3086491,145.641352 43.8346154,146.951916 43.8346154,148.364744 L54.0403846,148.364744 Z M73.7269231,144.405128 C72.5371735,143.289738 71.2916732,142.732051 69.9903846,142.732051 C68.0198619,142.732051 67.0346154,143.62435 67.0346154,145.408974 C67.0346154,146.412826 67.9269142,147.230766 69.7115385,147.862821 C72.9833497,149.05257 75.0096115,150.140059 75.7903846,151.125321 C76.5711577,152.110582 76.9615385,153.328198 76.9615385,154.778205 C76.9615385,157.157704 76.1343031,159.053839 74.4798077,160.466667 C72.8253122,161.879494 70.7897557,162.585897 68.3730769,162.585897 C65.2499844,162.585897 62.6660359,161.358987 60.6211538,158.905128 L63.0192308,155.837821 C64.8782144,157.696804 66.5884537,158.626282 68.15,158.626282 C70.4179601,158.626282 71.5519231,157.529498 71.5519231,155.335897 C71.5519231,154.220507 70.9570572,153.393272 69.7673077,152.854167 C68.5775582,152.315061 67.6666698,151.915386 67.0346154,151.655128 C63.6140855,150.167941 61.9038462,148.364754 61.9038462,146.245513 C61.9038462,144.126271 62.5451859,142.406737 63.8278846,141.086859 C65.1105833,139.766981 66.7929383,139.107051 68.875,139.107051 C71.8493738,139.107051 74.2102477,139.869223 75.9576923,141.39359 L73.7269231,144.405128 Z M87,161.860897 L81.5903846,161.860897 L81.5903846,144.683974 L78.9692308,144.683974 L78.9692308,140.278205 L81.5903846,140.278205 L81.5903846,132.358974 L87,132.358974 L87,140.278205 L91.2942308,140.278205 L91.2942308,144.683974 L87,144.683974 L87,161.860897 Z M113.546154,161.860897 L108.248077,161.860897 L108.248077,159.853205 C106.686531,161.675009 104.362836,162.585897 101.276923,162.585897 C98.1910102,162.585897 95.7278938,161.396166 93.8875,159.016667 C92.0471062,156.637168 91.1269231,153.848734 91.1269231,150.651282 C91.1269231,147.45383 92.0656957,144.73046 93.9432692,142.48109 C95.8208427,140.23172 98.2281904,139.107051 101.165385,139.107051 C104.288477,139.107051 106.649351,140.036529 108.248077,141.895513 L108.248077,139.832051 L113.546154,139.832051 L113.546154,161.860897 Z M108.861538,150.81859 C108.861538,148.773708 108.285262,147.091353 107.132692,145.771474 C105.980122,144.451596 104.502253,143.791667 102.699038,143.791667 C100.895824,143.791667 99.4272493,144.433006 98.2932692,145.715705 C97.1592892,146.998404 96.5923077,148.699348 96.5923077,150.81859 C96.5923077,152.937831 97.168584,154.64807 98.3211538,155.949359 C99.4737237,157.250648 100.960888,157.901282 102.782692,157.901282 C104.604496,157.901282 106.073071,157.269237 107.188462,156.005128 C108.303852,154.741019 108.861538,153.01219 108.861538,150.81859 Z M123.473077,142.11859 C124.848725,140.110887 127.005114,139.107051 129.942308,139.107051 C130.8718,139.107051 131.726919,139.292947 132.507692,139.664744 L131.838462,144.572436 C131.020509,144.05192 130.12821,143.791667 129.161538,143.791667 C125.369212,143.791667 123.473077,146.505742 123.473077,151.933974 L123.473077,161.860897 L118.063462,161.860897 L118.063462,139.832051 L123.473077,139.832051 L123.473077,142.11859 Z" id="estar-copy" fill="#FFFFFF"></path>
                <rect id="Rectangle" x="0" y="106.333333" width="37.9230769" height="36.4358974"></rect>
                <path d="M51.9471795,177.137949 C50.7415666,176.007687 49.4794596,175.442564 48.1608205,175.442564 C46.1640242,175.442564 45.165641,176.34676 45.165641,178.155179 C45.165641,179.172415 46.0698371,180.001262 47.8782564,180.641744 C51.1936918,181.847356 53.2469704,182.949345 54.0381538,183.947744 C54.8293373,184.946142 55.2249231,186.179993 55.2249231,187.649333 C55.2249231,190.060559 54.386658,191.981976 52.7101026,193.413641 C51.0335472,194.845306 48.9708499,195.561128 46.5219487,195.561128 C43.3572149,195.561128 40.7388138,194.317859 38.6666667,191.831282 L41.0967179,188.723077 C42.9804881,190.606847 44.7135305,191.548718 46.2958974,191.548718 C48.594097,191.548718 49.7431795,190.43731 49.7431795,188.214462 C49.7431795,187.084199 49.1403821,186.245934 47.9347692,185.699641 C46.7291564,185.153348 45.8061229,184.748343 45.165641,184.484615 C41.699504,182.977599 39.9664615,181.15037 39.9664615,179.002872 C39.9664615,176.855374 40.6163525,175.112913 41.9161538,173.775436 C43.2159552,172.437959 44.9207416,171.769231 47.0305641,171.769231 C50.0445963,171.769231 52.4369484,172.541565 54.2076923,174.086256 L51.9471795,177.137949 Z M79.808,194.826462 L74.4392821,194.826462 L74.4392821,192.792 C72.8569152,194.638095 70.5022379,195.561128 67.3751795,195.561128 C64.2481211,195.561128 61.7521632,194.355533 59.8872308,191.944308 C58.0222984,189.533082 57.0898462,186.707469 57.0898462,183.467385 C57.0898462,180.2273 58.0411358,177.467618 59.9437436,175.188256 C61.8463514,172.908895 64.2857971,171.769231 67.2621538,171.769231 C70.4268876,171.769231 72.8192398,172.711102 74.4392821,174.594872 L74.4392821,172.503897 L79.808,172.503897 L79.808,194.826462 Z M75.0609231,183.636923 C75.0609231,181.564776 74.4769631,179.85999 73.3090256,178.522513 C72.1410882,177.185036 70.6435134,176.516308 68.8162564,176.516308 C66.9889994,176.516308 65.5008434,177.166199 64.3517436,178.466 C63.2026438,179.765801 62.6281026,181.489425 62.6281026,183.636923 C62.6281026,185.784421 63.2120625,187.517463 64.38,188.836103 C65.5479375,190.154742 67.0549309,190.814051 68.9010256,190.814051 C70.7471203,190.814051 72.2352764,190.173579 73.3655385,188.892615 C74.4958005,187.611652 75.0609231,185.859772 75.0609231,183.636923 Z M89.8672821,174.538359 C91.4119735,172.692264 93.6913012,171.769231 96.7053333,171.769231 C101.829188,171.769231 104.391077,174.91508 104.391077,181.206872 L104.391077,194.826462 L98.9658462,194.826462 L98.9658462,183.015282 C98.9658462,178.305857 97.5153649,175.951179 94.614359,175.951179 C91.4496252,175.951179 89.8672821,178.475394 89.8672821,183.523897 L89.8672821,194.826462 L84.3855385,194.826462 L84.3855385,172.503897 L89.8672821,172.503897 L89.8672821,174.538359 Z M130.89559,183.636923 C130.89559,187.140735 129.821857,190.004023 127.674359,192.226872 C125.526861,194.449721 122.710667,195.561128 119.225692,195.561128 C115.740718,195.561128 112.905686,194.449721 110.720513,192.226872 C108.53534,190.004023 107.442769,187.150154 107.442769,183.665179 C107.442769,180.180205 108.516502,177.326336 110.664,175.103487 C112.811498,172.880638 115.637111,171.769231 119.140923,171.769231 C122.644735,171.769231 125.479767,172.87122 127.646103,175.075231 C129.812438,177.279242 130.89559,180.133111 130.89559,183.636923 Z M112.981026,183.749949 C112.981026,185.822096 113.564986,187.517463 114.732923,188.836103 C115.900861,190.154742 117.407854,190.814051 119.253949,190.814051 C121.100043,190.814051 122.578781,190.107648 123.690205,188.694821 C124.801629,187.281993 125.357333,185.605463 125.357333,183.665179 C125.357333,181.724896 124.792211,180.048366 123.661949,178.635538 C122.531687,177.222711 121.052949,176.516308 119.225692,176.516308 C117.398435,176.516308 115.900861,177.194455 114.732923,178.550769 C113.564986,179.907084 112.981026,181.640126 112.981026,183.749949 Z" id="sano" fill="#FFFFFF"></path>
                <circle id="Oval" fill="#2FCC71" cx="127.153846" cy="176.974359" r="5.94871795"></circle>
                <path d="M59.1610556,83.0982642 C65.8996622,96.8660337 83.4080348,112.065158 111.69776,128.376086 C113.654517,129.504288 114.326194,132.005141 113.197992,133.961899 C112.06979,135.918656 109.568936,136.590333 107.612179,135.462131 C78.0362546,118.409623 59.4331173,102.260127 51.8143536,86.6940925 C44.1343379,71.0029129 43.2992577,55.6235191 49.4012649,40.8544942 L49.4455435,40.7473241 L49.4958234,40.642835 C55.9420305,27.2466533 65.9980529,19.1266817 79.4020401,16.6155643 C92.8267418,14.1005663 104.503046,17.7570005 113.964978,27.4496516 L114.027463,27.5136593 L114.087088,27.5803378 C115.235,28.8640276 116.309101,30.1184581 117.309159,31.3445186 C118.033948,30.4123338 118.793921,29.4568611 119.589119,28.4777721 L119.657831,28.3931702 L119.730951,28.3123481 C129.504171,17.5097483 140.880765,13.8497858 153.215981,17.7579841 C155.369195,18.4401925 156.561681,20.7387566 155.879473,22.8919707 C155.197264,25.0451848 152.8987,26.2376706 150.745486,25.5554622 C141.644164,22.671867 133.564776,25.2529958 125.868573,33.7204112 C124.586706,35.3006958 123.409412,36.8069699 122.336921,38.2374492 C124.606809,41.8187353 126.112532,45.1269115 126.846453,48.1911949 C127.901188,52.5949472 127.649016,56.1695394 125.528478,59.3503476 C123.408129,62.5308699 120.30012,63.7740737 116.920477,63.7740737 C113.833262,63.7740737 110.360678,62.2465927 108.377288,59.4446776 C106.210586,56.3838002 105.765853,51.5934544 107.204643,47.7197876 C108.224563,44.9738495 109.929227,41.816258 112.322344,38.2184552 C111.070594,36.5957863 109.646919,34.88861 108.050406,33.1004213 C100.517351,25.4180467 91.6240079,22.6476736 80.9081915,24.6551861 C70.1762494,26.6657197 62.265591,33.0324764 56.916824,44.0849778 C51.785094,56.5887398 52.5027155,69.4944887 59.1610556,83.0982642 Z M114.872301,50.5677748 C114.3375,52.007624 114.519138,53.9640937 115.05341,54.7188544 C115.380106,55.1803753 116.321777,55.5945865 116.920477,55.5945865 C117.816475,55.5945865 118.341916,55.3844104 118.722733,54.8131844 C119.371226,53.8404445 119.466207,52.4940717 118.891937,50.0963675 C118.57813,48.7861555 118.026063,47.3427681 117.23421,45.7720415 C116.176201,47.5767663 115.38858,49.1777929 114.872301,50.5677748 Z" id="Path-3" fill="#2FCC71" fill-rule="nonzero" transform="translate(100.719688, 75.927632) rotate(-21.000000) translate(-100.719688, -75.927632) "></path>
            </g>
        </g>
    </g>
</svg>